<svg xmlns="http://www.w3.org/2000/svg" width="400" height="400" fill="none"><path fill="#FBFBFB" fill-rule="evenodd" d="M137.1 91.593c-.633.126-1.214.189-1.292.141-.078-.048-.141-.012-.141.079 0 .092-.132.158-.292.148-.16-.01-.742.115-1.292.278-.55.162-1.112.32-1.25.351-.212.047-1.408.485-3.583 1.315-.275.105-.743.321-1.04.479-.297.159-.579.286-.627.282-.119-.011-2.859 1.372-3.583 1.808-.321.193-.846.505-1.167.692-.985.577-2.579 1.645-4.523 3.03-6.644 4.732-16.131 15.202-19.453 21.471-.219.412-.501.868-.627 1.013-.127.145-.23.31-.23.367 0 .058-.235.502-.523.987A72.967 72.967 0 0 0 95.793 127l-1.128 2.083c-1.689 3.113-4.171 8.21-5.681 11.667a833.615 833.615 0 0 1-2.013 4.582c-.187.411-.361.861-.388 1-.027.138-.309.926-.627 1.751-.804 2.083-1.368 3.659-1.326 3.708.02.023-.114.436-.297.917-.183.481-.333 1.007-.333 1.167 0 .16-.079.292-.177.292-.097 0-.135.067-.084.149.051.082-.017.409-.149.726a6.165 6.165 0 0 0-.323 1.025c-.044.246-.206.875-.358 1.399a18.382 18.382 0 0 0-.352 1.367c-.041.23-.187.792-.324 1.25a11.292 11.292 0 0 0-.334 1.5 16.242 16.242 0 0 1-.317 1.584c-.219.858-.407 1.927-.439 2.5a70.03 70.03 0 0 1-.317 2.278c-.166 1.115-.261 2.183-.212 2.372.05.19.036.477-.03.639-.336.821-.469 14.093-.192 19.294.077 1.467.158 3.117.179 3.667.103 2.669.563 5.357 1.098 6.416.163.321.298.643.301.714.003.072.158.447.345.834.186.386.36 1.04.387 1.452l.048.75-1.333-.011c-1.243-.011-3.395-.155-3.584-.24-.046-.02-.196-.027-.333-.016-.138.012-1.037-.122-1.998-.299-.962-.176-1.809-.283-1.883-.238-.073.046-.24-.005-.369-.112-.129-.108-.307-.151-.395-.097-.088.054-.895-.043-1.795-.216-.899-.173-1.723-.281-1.83-.24a.258.258 0 0 1-.302-.095c-.058-.094-.199-.135-.313-.092-.114.044-.911-.064-1.772-.241-.861-.176-1.658-.285-1.771-.242-.113.043-.252.002-.31-.092-.059-.094-.199-.135-.313-.091-.115.044-.912-.065-1.773-.242-.861-.176-1.657-.285-1.77-.242-.113.044-.253.002-.311-.092-.058-.094-.199-.135-.313-.091-.114.044-.912-.065-1.772-.241-.861-.177-1.658-.286-1.771-.242-.113.043-.253.002-.311-.092-.058-.094-.197-.137-.308-.095-.112.042-.95-.069-1.862-.246-.912-.178-1.722-.284-1.799-.236-.077.048-.246-.001-.376-.109-.129-.107-.303-.153-.386-.101-.084.051-.992-.028-2.02-.176-1.729-.25-1.888-.25-2.141.003-.276.277-.579 2.274-.344 2.274.066 0 .113.132.103.292-.12 2.01 3.431 5.631 8.372 8.535a48.69 48.69 0 0 1 2.256 1.423c.554.378 1.116.735 1.25.792.134.057.994.593 1.91 1.191.917.597 2.004 1.289 2.417 1.537 1.038.624 6.847 4.505 8.167 5.456.595.429 1.57 1.103 2.166 1.498 2.101 1.392 6.96 5.095 10.834 8.256 6.838 5.58 12.746 11.875 17.147 18.27.315.459.899 1.302 1.296 1.875.398.572.723 1.092.723 1.156 0 .063.138.269.307.459.353.395 3.193 4.882 3.193 5.043 0 .059.104.226.232.371.127.145.431.638.675 1.096.245.459.74 1.31 1.102 1.892.362.582.658 1.096.658 1.141 0 .045.139.282.309.525.169.243.63 1.042 1.023 1.776.393.733.769 1.408.836 1.5.066.091.518.916 1.003 1.833a295.75 295.75 0 0 0 1.381 2.583c.274.505 1.341 2.567 2.371 4.584 5.866 11.488 5.631 11.081 7.004 12.125.723.549 3.891 2.23 4.573 2.426.876.252 2.038.216 2.357-.073.386-.349 1.109-1.871 2.051-4.319.246-.638.623-1.609.838-2.159.609-1.555 1.003-2.667.945-2.667-.029 0 .112-.413.313-.917s.401-1.137.445-1.407c.045-.269.22-.842.39-1.273.17-.431.277-.815.238-.854-.039-.038.102-.63.314-1.315.211-.684.355-1.329.321-1.432-.196-.587.366-.273.863.482 2.395 3.643 6.996 9.681 8.907 11.69 1.245 1.308 4.344 3.204 5.786 3.54.683.159 4.232.226 4.232.08 0-.067.094-.122.208-.123.748-.004 3.341-1.59 6.4-3.915.93-.706 1.748-1.233 1.818-1.17.07.063.08.03.021-.073s.319-.56.848-1.026c1.449-1.274 3.686-3.497 4.687-4.658.492-.571.972-.991 1.066-.933.093.058.124.032.069-.059-.056-.09.508-.946 1.252-1.901 1.794-2.298 4.928-6.496 6.4-8.569 2.413-3.4 3.087-4.364 3.927-5.618.473-.706.934-1.238 1.025-1.182.09.056.115.022.054-.076-.06-.097.51-1.117 1.266-2.266 1.687-2.562 2.303-3.551 3.548-5.692.533-.916 1.038-1.712 1.121-1.768.084-.056.148-.149.143-.206-.01-.106.245-.716 1.054-2.526.246-.55.635-1.487.865-2.083.23-.596.563-1.45.74-1.897.177-.448.321-.917.321-1.042s.067-.228.148-.228c.082 0 .139-.093.127-.208-.012-.115.233-.996.545-1.958.311-.963.579-1.863.594-2 .015-.138.151-.625.301-1.084.151-.458.306-1.02.345-1.25.04-.229.236-1.183.437-2.119.417-1.943.36-2.324-.544-3.588-1.002-1.4-2.052-2.019-2.774-1.633-.291.157-1.444 1.84-1.259 1.84.046 0-.113.394-.353.875-.239.482-.559 1.137-.71 1.457-.627 1.333-1.66 2.599-3.495 4.285-1.07.983-2.283 2.099-2.695 2.48-.412.381-1.05.944-1.417 1.252-.366.308-1.604 1.388-2.75 2.4a163.788 163.788 0 0 1-3.083 2.665c-.55.453-1.6 1.357-2.333 2.007a82.627 82.627 0 0 1-2.667 2.247c-.733.586-1.596 1.309-1.917 1.607-1.105 1.027-4.471 3.648-5.193 4.044-2.166 1.188-2.543 1.381-2.788 1.43-.148.029-.456.099-.685.154-.776.187-.936-.089-.687-1.185.121-.532.217-1.099.213-1.259-.003-.161.069-.292.161-.292.091 0 .123-.07.07-.155-.052-.085.051-.526.231-.981.179-.455.28-.873.224-.929-.056-.056-.022-.102.075-.102.096 0 .167-.093.157-.208-.018-.212.156-.843.77-2.792.187-.596.341-1.177.341-1.291 0-.115.067-.209.149-.209.082 0 .108-.066.058-.147-.05-.081.054-.568.231-1.083.177-.515.293-.936.257-.936-.036 0 .082-.429.262-.952.18-.524.357-1.115.393-1.315.076-.418.487-1.84.983-3.4.19-.596.371-1.258.402-1.471.032-.213.203-.757.381-1.208.178-.452.291-.821.252-.821-.04 0 .079-.431.264-.958.185-.527.362-1.148.395-1.378.032-.231.213-.812.402-1.292.189-.48.312-.872.272-.872-.039 0 .08-.431.264-.958.185-.527.367-1.102.404-1.278.037-.175.181-.663.321-1.083.14-.42.252-.802.249-.848-.003-.046.153-.533.346-1.083.193-.55.382-1.158.421-1.351.038-.193.188-.68.334-1.083.145-.403.294-.878.331-1.056.098-.475 1.209-4.016 1.624-5.177.196-.55.372-1.098.39-1.217.034-.226.375-1.288.919-2.866.174-.504.323-.992.331-1.083.008-.092.163-.542.345-1 .182-.459.362-.998.399-1.198.038-.2.215-.706.394-1.125.18-.418.293-.761.252-.761-.042 0 .081-.393.272-.875.191-.481.381-1.057.423-1.28.041-.222.118-.474.171-.559.128-.208 1.559-4.271 1.671-4.744.048-.206.159-.375.245-.375.087 0 .112-.073.057-.162-.055-.089.022-.396.17-.683.148-.286.296-.645.328-.796.052-.244.287-.885 1.109-3.026.123-.321.299-.638.39-.705.092-.068.109-.124.038-.125-.071-.002-.009-.235.137-.519.147-.284.295-.641.328-.792.114-.521 3.953-9.351 4.467-10.275.102-.184.188-.371.191-.417.027-.364 9.795-19.886 10.508-21 .088-.138.164-.288.17-.333.011-.093.475-.998 1.411-2.75l1.379-2.584c.415-.779.96-1.791 1.211-2.25 1.147-2.099 3.243-6.546 3.246-6.887a1.18 1.18 0 0 1 .154-.519c.26-.411-.247-.927-.91-.927-.319 0-.58.044-.58.097 0 .054-.099.097-.221.097-.202 0-.862.237-2.945 1.058a164.8 164.8 0 0 1-1.5.581 69.1 69.1 0 0 0-1.667.665c-.504.21-1.329.551-1.833.758-.505.207-1.142.472-1.417.589-1.715.731-4.852 1.989-5.583 2.239-.229.079-.979.38-1.667.671-.687.29-1.625.661-2.083.823-.459.163-1.809.65-3 1.083-1.192.433-2.392.847-2.667.92-.567.152-1.78.569-2.981 1.026-.447.17-.92.31-1.05.31-.129 0-.447.109-.705.242a3.905 3.905 0 0 1-.867.319c-.218.042-.81.223-1.314.403-1.313.469-2.612.89-2.865.929-.12.018-.668.189-1.218.381-1.336.465-2.742.89-3.236.978-.221.04-.763.192-1.204.339-.442.146-.879.219-.973.161-.094-.058-.17-.042-.17.036 0 .177-1.997.268-2.009.091-.078-1.205-.065-1.751.046-1.819.074-.046.1-.14.058-.208-.376-.608 1.087-3.582 3.205-6.519 4.81-6.671 13.473-18.199 18.533-24.662.412-.527 1.32-1.7 2.017-2.606 5.118-6.661 7.916-9.833 17.995-20.399 5.324-5.581 5.911-6.287 5.752-6.92-.099-.393-.597-.598-.597-.246 0 .091-.057.148-.125.125-.251-.082-4.048 2.353-6.062 3.887-.31.237-1.912 1.437-3.561 2.667a388.814 388.814 0 0 0-4.555 3.448c-.856.665-1.637 1.16-1.736 1.099-.099-.061-.136-.041-.083.045.053.086-.139.342-.427.568-.493.386-6.358 5.057-10.963 8.729-1.139.909-2.147 1.737-2.238 1.84-.092.104-1.742 1.457-3.667 3.008-1.925 1.551-3.913 3.173-4.417 3.604-.504.431-2.522 2.122-4.484 3.757-5.433 4.527-5.935 4.952-9.042 7.639-5.703 4.934-9.025 8.544-11.974 13.012-.565.857-1.821 3.106-1.927 3.451-.062.204-.169.446-.237.537-.241.324-1.063 3.005-1.035 3.375.016.207-.028.375-.098.375-.069 0-.115.919-.1 2.042.014 1.123.043 2.042.064 2.042.021 0 .063.212.093.472.214 1.824 1.894 5.478 3.932 8.553.658.994 1.197 1.897 1.197 2.007 0 .109.044.189.097.176.054-.013 1.073.949 2.264 2.138 2.563 2.556 4.834 4.198 5.848 4.227.191.006.393.056.449.112.082.083 2.183.138 2.328.061.023-.012.189-.049.368-.083.18-.033.63-.186 1-.338l1.424-.584c.412-.168 1.462-.617 2.333-.998.871-.38 1.659-.708 1.75-.73.092-.021.504-.198.917-.394 1.723-.815 3.678-1.703 3.751-1.703.043 0 .938-.418 1.99-.93 1.052-.511 1.934-.911 1.961-.888.026.023.367-.159.756-.405.39-.246.709-.406.709-.356 0 .05.28-.099.622-.331.342-.233.673-.423.736-.423.719 0 5.472-3.19 9.01-6.048 3.637-2.937 5.818-4.619 5.991-4.619.299 0-1.012 1.731-6.701 8.845a927.351 927.351 0 0 0-4.471 5.628c-.658.844-1.303 1.663-1.435 1.822-.878 1.061-6.811 8.882-7.806 10.29-.259.366-.77 1.078-1.136 1.582-.78 1.076-4.942 7.336-5.401 8.125-.173.298-.373.542-.445.542-.072 0-.131.067-.131.15 0 .083-.694 1.248-1.542 2.589-.848 1.342-1.766 2.839-2.041 3.328-.275.489-.581.993-.681 1.119-.099.127-.953 1.543-1.898 3.147a241.05 241.05 0 0 1-2.089 3.5c-.203.321-.555.921-.782 1.333a69.91 69.91 0 0 1-.751 1.334c-1.548 2.657-2.049 3.534-2.049 3.581 0 .144-1.4 2.515-1.538 2.604-.087.056-.159.169-.161.25-.004.157-.317.796-1.053 2.148-.25.458-.646 1.208-.88 1.667a34.131 34.131 0 0 1-.769 1.413c-.188.32-.355.673-.371.786-.017.113-.193.433-.391.711-.198.279-.317.506-.264.506.053 0-.088.357-.314.792-.541 1.044-2.934 6.388-3.003 6.708-.03.138-.167.513-.303.834-.445 1.045-1.61 4.391-1.714 4.923-.036.187-.206.749-.377 1.25-.171.5-.279 1.004-.24 1.118.04.115-.014.209-.118.209-.105 0-.15.065-.1.146.049.08-.029.545-.174 1.033-.144.488-.291 1.108-.325 1.378-.034.27-.184.911-.334 1.424-.149.514-.271 1.179-.271 1.477 0 .298-.069.585-.153.637-.084.052-.113.159-.065.237.049.078-.028.917-.171 1.863-.257 1.708-.317 2.548-.483 6.721-.075 1.907-.358 5.783-.574 7.875-.099.964-1.962-2.967-2.433-5.134-.031-.142-.176-.546-.323-.897-.147-.351-.299-.797-.339-.991-.11-.538-1.222-3.247-1.718-4.186-.243-.458-.429-.85-.416-.871.028-.043-.709-1.674-1.789-3.962l-1.439-3.047c-.402-.85-.731-1.577-.731-1.615 0-.088-1.276-2.87-1.569-3.422-.122-.229-.616-1.316-1.098-2.416-.481-1.1-.931-2.075-.999-2.167-.068-.092-.818-1.742-1.667-3.667a361.198 361.198 0 0 0-2.087-4.666c-.496-1.061-.778-1.69-1.534-3.417-.14-.321-.437-.94-.66-1.375-.223-.435-.368-.792-.323-.792.045 0-.221-.655-.591-1.457s-.705-1.608-.745-1.792c-.611-2.844-.431-3.484 1.032-3.674.28-.036 1.008-.182 1.619-.324.61-.141 1.169-.247 1.241-.235a.448.448 0 0 0 .215-.016c.045-.021.308-.059.583-.083.275-.025 1.166-.171 1.98-.325.814-.154 1.581-.241 1.703-.194.123.047.263.021.311-.057.049-.079.333-.139.631-.134.298.004 1.318-.118 2.266-.273.949-.155 1.861-.238 2.028-.185.167.053.342.032.391-.046.196-.317 3.154-.233 3.021.086-.067.161-.184.48-.261.709-.076.23-.294.867-.484 1.417s-.354 1.075-.365 1.167c-.01.091-.191.673-.402 1.291-.21.619-.34 1.125-.289 1.125.052 0 .011.101-.091.224-.103.123-.155.255-.117.293.038.038-.036.519-.165 1.068-.316 1.344-.301 4.231.031 5.939.149.766.292 1.563.319 1.77.152 1.203 1.321 2.325 3.133 3.007 1.733.652 2.774.41 2.543-.591-.164-.712-.185-.782-.296-.96-.596-.961-.941-5.165-.595-7.261.243-1.475 1.522-4.244 3.34-7.236 3.115-5.125 5.518-7.199 8.535-7.366 3.612-.201 3.915-.243 4.916-.694.321-.145.893-.507 1.271-.805.377-.298.74-.488.805-.423.065.065.097.044.071-.048-.026-.092.295-.692.714-1.333.419-.642.913-1.467 1.097-1.834.655-1.301 1.941-4.858 1.915-5.291-.01-.161.056-.292.148-.292.091 0 .126-.064.077-.143-.048-.078.053-.635.225-1.237.172-.602.275-1.133.229-1.18-.047-.046-.023-.183.053-.304.163-.261.173-.383.322-4.138.205-5.131-.065-5.915-2.038-5.915h-1.304l-.472-.879c-.731-1.362-.941-1.445-3.596-1.42-2.719.025-4.664.139-5.05.297-.156.063-.35.075-.43.025-.08-.049-.852.06-1.716.244-.864.183-1.799.365-2.078.403-.279.038-1.142.303-1.917.588-.775.285-1.559.561-1.742.614a3.306 3.306 0 0 0-.75.377 4.607 4.607 0 0 1-.667.379c-.698.275-3.122 2.343-5.541 4.728-2.95 2.908-3.66 3.476-6.292 5.037-.963.571-1.863 1.105-2 1.188-3.137 1.886-6.499 3.721-6.503 3.548-.001-.071-.058-.054-.125.038-.132.18-1.297.752-1.706.837-.137.029-.534.174-.882.321-.348.148-.704.225-.792.171-.087-.054-.159-.025-.159.064 0 .094-.601.162-1.417.16-.789-.002-1.416-.074-1.416-.163 0-.088-.062-.121-.138-.074-.665.411-2.12-2.408-2.286-4.427-.261-3.188-.552-8.676-.47-8.889.054-.14.005-.365-.107-.501a.73.73 0 0 1-.119-.578c.048-.182-.021-1.438-.154-2.792-.578-5.931-.616-18.626-.069-22.962.176-1.394.325-2.825.356-3.417.007-.138.129-.888.27-1.667.142-.779.289-1.679.328-2 .039-.321.188-.984.33-1.474.142-.49.279-1.052.305-1.25.188-1.462 1.611-5.883 3.168-9.847.249-.635.516-1.273.593-1.417.076-.144.34-.712.586-1.262a68.806 68.806 0 0 1 2.336-4.75l1.326-2.416c.351-.642.962-1.674 1.358-2.294.396-.619.72-1.169.72-1.221 0-.085.382-.699 1.562-2.514.189-.291.414-.486.5-.433.086.053.104.013.041-.09-.121-.195.067-.514 1.743-2.948 6.378-9.267 12.112-14.891 17.737-17.401.459-.204 1.15-.514 1.536-.689 2.855-1.289 5.62-1.006 6.012.617.183.758.079 4.806-.124 4.806-.014 0-.055.274-.091.609-.035.335-.175 1.036-.312 1.558-.136.522-.21 1.047-.164 1.166.045.119.001.267-.098.328-.099.062-.142.174-.095.251.047.076-.032.759-.176 1.517-.144.759-.268 1.594-.275 1.856-.008.262-.078.517-.158.566a.172.172 0 0 0-.052.237c.05.081-.029.657-.176 1.28-.146.622-.294 1.32-.327 1.549a4.692 4.692 0 0 1-.091.5.518.518 0 0 0-.009.216c.012.073-.09.567-.228 1.098a16.071 16.071 0 0 0-.326 1.557c-.042.326-.198 1.014-.348 1.529-.15.515-.3 1.152-.333 1.415-.033.263-.19.918-.349 1.456-.159.538-.281 1.11-.271 1.27.01.161-.057.292-.148.292-.092 0-.125.066-.075.147.05.081-.022.513-.159.959a13.308 13.308 0 0 0-.343 1.359c-.051.302-.233.958-.405 1.459-.173.5-.284.909-.249.909.035 0-.114.525-.332 1.167-.219.642-.368 1.167-.333 1.167.036 0-.087.431-.271.958-.185.527-.363 1.146-.395 1.375-.033.229-.212.773-.399 1.208-.187.436-.306.792-.264.792.042 0-.077.394-.265.875s-.373 1.025-.412 1.208a7.383 7.383 0 0 1-.303.917 78.928 78.928 0 0 0-.6 1.583c-.202.55-.53 1.369-.729 1.82-.2.451-.363.866-.363.922 0 .127-.21.626-1.935 4.592-.757 1.741-1.419 3.204-1.471 3.25-.051.045-.114.183-.14.305-.025.122-.28.722-.566 1.333-.286.612-.54 1.209-.565 1.329-.025.119-.159.389-.296.599-.138.211-.438.826-.666 1.367-.439 1.039-1.432 3.169-2.828 6.067-.464.962-.851 1.787-.859 1.833-.008.046-.284.646-.613 1.333-.329.688-.602 1.288-.606 1.334-.004.045-.328.72-.719 1.5-.697 1.39-.818 1.901-.52 2.199.205.205 1.203-1.138 2.438-3.283.106-.183.436-.746.735-1.25.873-1.474.927-1.565 1.152-1.956.118-.206.222-.431.23-.5.009-.07.158-.326.331-.569.173-.244.315-.478.315-.522 0-.043.432-.856.961-1.807 1.196-2.152 4.372-8.538 4.372-8.792 0-.103.088-.187.195-.187.107 0 .15-.044.096-.098-.054-.054.166-.71.489-1.458l.944-2.194c.196-.458.42-.879.497-.935.078-.056.127-.153.11-.216-.048-.173.322-1.106 2.092-5.266a138.823 138.823 0 0 0 1.67-4.166c.119-.321.75-1.896 1.402-3.5.652-1.604 1.212-3.029 1.245-3.167.032-.138.171-.513.308-.833.137-.321.397-.959.579-1.417l.696-1.75c.201-.504.391-1.029.421-1.167a6.87 6.87 0 0 1 .302-.833c.455-1.076.976-2.414 1.036-2.667.034-.137.244-.737.468-1.333l.94-2.5c.292-.779.558-1.533.589-1.676.031-.142.182-.555.336-.916.154-.362.312-.822.351-1.022.039-.201.217-.707.396-1.125.18-.419.293-.761.252-.761-.042 0 .073-.378.255-.84.182-.461.331-.986.331-1.166 0-.18.08-.327.177-.327.097 0 .135-.067.084-.149-.05-.082.021-.47.16-.862.138-.392.29-.944.338-1.226.047-.282.233-1.279.411-2.215.179-.937.282-1.814.229-1.951a.569.569 0 0 1 .025-.442c.4-.648.404-9.324.004-9.97-.063-.102-.069-.258-.014-.347.151-.245-.717-2.652-1.278-3.54-.73-1.157-2.416-2.652-3.731-3.306-.635-.317-1.21-.651-1.277-.742-.067-.092-.124-.114-.125-.049-.002.064-.321.002-.711-.138-.39-.14-.896-.282-1.125-.315a25.833 25.833 0 0 1-1.5-.319c-1.336-.318-4.306-.319-5.9-.003Zm99.317 21.036a29.72 29.72 0 0 0-1.334.311 69.89 69.89 0 0 1-1.259.307c-.142.03-.544.174-.892.319-.349.146-.701.224-.783.173-.082-.051-.149-.017-.149.074 0 .092-.131.17-.292.175-3.523.099-4.754.418-5.341 1.383-.446.733-2.466 6.86-2.392 7.254.022.115-.043.208-.144.208-.101 0-.143.066-.094.146.05.08-.011.474-.134.875-.731 2.374-.97 3.22-1.024 3.617-.033.245-.203.858-.377 1.362-.175.504-.285 1.011-.246 1.125.04.115-.014.209-.119.209-.104 0-.149.066-.099.147.05.081-.021.512-.159.958a13.648 13.648 0 0 0-.344 1.368 9.01 9.01 0 0 1-.341 1.25 7.472 7.472 0 0 0-.323 1.277 9.26 9.26 0 0 1-.335 1.369c-.142.432-.289 1.025-.326 1.318-.037.293-.18.877-.317 1.298-.137.42-.293 1.027-.346 1.348-.054.321-.219.996-.367 1.5-.149.504-.262 1.048-.252 1.208.01.161-.057.292-.148.292-.092 0-.128.062-.081.138.047.077-.024.545-.158 1.042s-.28 1.166-.324 1.487c-.043.32-.225 1.105-.402 1.744-.178.639-.29 1.215-.25 1.28.041.066.001.164-.088.219-.089.056-.128.192-.085.304.042.111-.072.72-.253 1.352-.181.631-.293 1.208-.248 1.28.045.072.004.179-.091.237-.095.059-.131.174-.08.256.051.082-.022.591-.163 1.132-.14.541-.293 1.275-.34 1.631-.047.357-.23 1.2-.406 1.874-.176.674-.28 1.331-.231 1.458.049.128.002.233-.105.233s-.15.072-.096.16c.054.087-.049.739-.231 1.447-.181.708-.295 1.343-.253 1.412.042.068 0 .172-.095.231-.095.058-.131.173-.08.254.05.082-.056.723-.235 1.424-.18.701-.287 1.379-.238 1.507.049.127.001.231-.106.231s-.149.073-.095.161c.055.088-.021.626-.169 1.195-.147.569-.274 1.247-.281 1.506-.007.26-.081.472-.165.472-.083 0-.106.071-.052.159.054.088-.019.667-.163 1.287-.144.62-.3 1.43-.346 1.799-.046.369-.227 1.229-.401 1.91-.175.682-.283 1.295-.24 1.364.042.068-.001.172-.096.231-.094.058-.13.173-.08.255.051.082-.019.583-.155 1.114-.136.53-.291 1.337-.344 1.792a16.701 16.701 0 0 1-.36 1.834c-.145.552-.265 1.175-.266 1.383-.002.208-.07.419-.152.47-.081.05-.109.155-.061.232.048.078-.034.654-.181 1.28-.148.627-.27 1.31-.272 1.518-.002.208-.071.419-.152.47a.174.174 0 0 0-.057.24c.05.081-.055.722-.235 1.423-.18.702-.287 1.38-.238 1.507.049.127.002.232-.105.232s-.15.071-.096.159c.054.088-.022.669-.169 1.292-.146.622-.294 1.32-.327 1.549a4.692 4.692 0 0 1-.091.5.495.495 0 0 0-.013.204c.01.066-.101.629-.248 1.25-.146.621-.267 1.299-.269 1.507-.002.208-.071.419-.152.47a.176.176 0 0 0-.057.241c.051.082-.029.618-.178 1.192-.148.573-.3 1.367-.338 1.765-.037.397-.212 1.289-.39 1.982-.177.692-.282 1.363-.234 1.49.049.128.002.232-.105.232s-.15.072-.096.159c.054.088-.021.669-.168 1.292-.147.623-.294 1.32-.327 1.549a4.875 4.875 0 0 1-.092.5.514.514 0 0 0-.009.215c.012.072-.095.632-.237 1.245a22.818 22.818 0 0 0-.337 1.74 21.971 21.971 0 0 1-.344 1.754c-.146.621-.267 1.299-.269 1.507-.002.208-.071.42-.153.47a.176.176 0 0 0-.056.241c.051.082-.028.615-.176 1.184-.147.569-.274 1.249-.281 1.512-.008.262-.079.517-.158.566a.174.174 0 0 0-.052.238c.051.082-.029.618-.178 1.192-.148.573-.3 1.368-.338 1.765-.037.398-.212 1.289-.39 1.982-.177.693-.282 1.363-.234 1.491.049.127.002.231-.105.231s-.151.071-.097.158c.053.086-.03.705-.185 1.375-.155.669-.274 1.347-.264 1.506.009.158-.055.332-.142.386-.087.054-.12.162-.072.239.048.078-.033.654-.181 1.28-.147.627-.27 1.31-.272 1.518-.002.208-.07.419-.152.47a.175.175 0 0 0-.056.241c.05.082-.029.614-.176 1.183-.148.569-.274 1.25-.282 1.512-.007.263-.078.518-.157.566a.174.174 0 0 0-.052.239c.051.082-.029.618-.178 1.191-.149.574-.301 1.37-.338 1.769-.038.4-.188 1.187-.334 1.75-.145.563-.295 1.351-.333 1.75-.037.4-.187 1.187-.333 1.75-.146.563-.296 1.351-.334 1.75-.037.4-.186 1.184-.331 1.742-.145.559-.269 1.231-.276 1.493-.008.263-.079.518-.158.566a.175.175 0 0 0-.052.239c.051.082-.028.614-.176 1.183-.147.569-.274 1.25-.281 1.512-.008.263-.078.518-.158.566a.168.168 0 0 0-.056.23c.047.078-.034.654-.182 1.28-.147.627-.269 1.31-.271 1.518-.002.208-.066.416-.143.463-.076.047-.104.177-.063.289.042.112-.067.797-.241 1.523-.174.726-.278 1.42-.231 1.542.046.122.004.221-.095.221-.098 0-.144.094-.101.209.042.114-.065.802-.239 1.528-.175.726-.282 1.412-.238 1.525a.27.27 0 0 1-.103.316c-.099.062-.139.179-.088.261.05.082-.029.615-.176 1.184-.148.569-.274 1.249-.282 1.512-.007.262-.078.517-.157.566a.17.17 0 0 0-.057.231c.049.078-.057.764-.234 1.525-.177.76-.289 1.436-.249 1.502.04.065-.004.166-.099.225-.094.058-.131.173-.08.254.05.081-.029.657-.176 1.28s-.294 1.32-.327 1.549c-.033.229-.071.417-.083.417-.013 0-.052.216-.086.481-.035.265-.179.771-.321 1.125-.141.354-.224.644-.183.644.041 0-.034.309-.168.687-.328.932-.312 1.01.206.949.466-.055.987-1.342.771-1.905-.048-.127.003-.231.114-.231s.16-.11.109-.245c-.052-.134.012-.603.142-1.041.131-.439.25-.873.266-.964.016-.092.174-.579.351-1.084.177-.504.353-1.062.39-1.24.101-.476 1.212-4.017 1.624-5.176.196-.55.334-1 .307-1-.028 0 .113-.413.313-.917s.398-1.096.439-1.315c.04-.219.189-.669.331-1 .141-.331.291-.782.333-1.002a3.08 3.08 0 0 1 .247-.718c.093-.174.272-.631.398-1.016.577-1.76.941-2.711 1.173-3.065.138-.211.209-.384.158-.384-.051 0-.012-.15.086-.333.326-.61.916.215 1.08 1.508.079.625.867 3.073 1.194 3.708.643 1.249 2.648 3.17 6.015 5.764.755.582 1.325 1.136 1.266 1.231-.059.096-.028.124.069.065.097-.06.878.434 1.735 1.098a395.302 395.302 0 0 0 5.374 4.09c.972.732 1.567 1.288 1.497 1.401-.065.106-.04.14.058.079.15-.093 2.51 1.619 2.962 2.149.291.343 7.622 6.131 8.75 6.909 1.781 1.229 2.611 1.136 4.911-.551 2.517-1.846 3.035-2.284 3.587-3.034.542-.737 1.605-2.917 1.423-2.917-.039 0 .079-.432.261-.959.182-.527.372-1.221.421-1.541.05-.321.231-.902.401-1.292.171-.39.273-.708.228-.708-.088 0 .864-1.792 1.113-2.096.589-.718.859-3.931 1.02-12.154.009-.459.123-4.771.254-9.584.213-7.827.385-15.281.418-18.083.007-.55.118-5.808.248-11.685.129-5.877.265-13.039.302-15.917.18-14.056.247-18.356.404-25.981.337-16.326.113-49.265-.396-58.262-.049-.872-.124-.979-1.062-1.515-.431-.245-1.421-1.061-2.2-1.811-1.914-1.844-3.102-2.3-5.083-1.95Zm33.333 2.518c-.183.08-.821.146-1.417.148-.596.002-1.596.125-2.222.272-.627.148-1.208.226-1.292.174-.084-.052-.152-.019-.152.072 0 .092-.132.159-.292.15-2.042-.114-7.979 3.121-10.384 5.658-.762.804-1.435 1.448-1.494 1.43-.06-.018-.108.063-.108.18 0 .116-.227.543-.503.949-.566.828-2.079 3.653-1.957 3.653.044 0-.027.207-.156.459-.426.825-1.838 5.309-1.811 5.75.009.16-.057.291-.149.291-.091 0-.121.073-.067.161.055.089-.014.558-.154 1.042a12.06 12.06 0 0 0-.331 1.5 39.322 39.322 0 0 1-.251 1.584c-.525 2.917-.583 11.532-.125 18.547.129 1.97.241 3.808.25 4.083.04 1.301.209 3.342.452 5.444.146 1.269.217 2.385.158 2.481-.059.095-.017.282.094.415.11.133.161.393.112.578-.048.185.052 1.37.223 2.634.171 1.263.313 2.443.316 2.622.012.712.175 2.072.436 3.629.151.899.23 1.68.176 1.734-.055.055-.016.199.085.321.101.121.145.321.098.443-.047.123.058 1.005.233 1.961.175.956.283 1.829.241 1.941-.043.112-.015.242.062.289.077.048.145.369.151.714.006.345.127 1.178.27 1.85.143.673.22 1.287.173 1.364-.048.077-.006.191.094.252.099.061.144.207.099.324-.045.116.064.864.242 1.661.177.797.282 1.513.234 1.593a.17.17 0 0 0 .054.233c.08.048.15.303.158.566.007.262.134.943.281 1.512.148.569.227 1.101.176 1.183-.05.083-.014.197.08.256.095.059.136.166.091.239-.045.072.06.648.233 1.28.173.631.358 1.428.411 1.77.053.342.24 1.142.416 1.778.177.636.289 1.187.251 1.226-.038.038.076.491.253 1.006s.364 1.184.415 1.486c.05.301.236 1.017.412 1.59.177.573.295 1.042.262 1.042-.032 0 .091.431.275.958.183.527.361 1.146.395 1.375.034.229.179.743.323 1.143.143.399.22.793.169.875-.051.082 0 .149.112.149.113 0 .161.043.107.097-.053.054.048.519.226 1.035.177.516.353 1.091.39 1.278.038.187.226.79.419 1.34.193.55.341 1 .328 1-.013 0 .228.787.535 1.75.306.962.548 1.843.536 1.958-.012.115.058.208.154.208.097 0 .132.045.078.099-.055.054.046.436.222.848.177.413.28.818.228.902-.052.083-.01.151.093.151.102 0 .149.06.104.133-.045.073.063.455.24.85.177.395.279.785.229.868-.051.082-.001.149.111.149.113 0 .16.045.106.099-.054.054.046.436.223.848.176.413.279.818.227.902-.051.083-.026.151.055.151.082 0 .155.094.162.209.007.114.286.958.62 1.875 1.162 3.191 1.276 3.508 1.761 4.916.549 1.594 1.242 3.487 2.412 6.584.242.641.47 1.279.505 1.416.036.138.338.925.672 1.75.334.824.631 1.623.661 1.775.029.152.177.516.328.809.152.293.304.656.339.808.035.151.783 2.037 1.661 4.192.879 2.154 1.626 4.04 1.661 4.192.035.151.184.507.331.791.147.284.209.518.138.519-.071.002-.053.058.042.125.094.068.31.46.479.873 1.19 2.892 3 6.789 3.638 7.833.993 1.626 2.91 4.434 3.582 5.25.076.092.506.654.956 1.25 1.378 1.824 3.612 4.333 3.857 4.333.274 0 .298-.224.068-.627-.091-.159-.272-.589-.401-.956s-.433-1.192-.675-1.833a77.038 77.038 0 0 1-.665-1.834c-.124-.366-.574-1.641-1.001-2.833-.878-2.452-2.115-6.082-2.157-6.333-.016-.092-.186-.617-.377-1.167-.576-1.651-.891-2.645-.97-3.055-.041-.213-.228-.796-.414-1.295-.187-.499-.327-.961-.311-1.028.015-.067-.1-.543-.257-1.057a18.857 18.857 0 0 1-.357-1.315c-.04-.209-.198-.8-.351-1.315-.152-.514-.296-1.085-.32-1.268-.024-.184-.175-.784-.337-1.334-.161-.55-.312-1.161-.335-1.359-.022-.198-.16-.769-.305-1.269a13.557 13.557 0 0 1-.345-1.474 10.925 10.925 0 0 0-.336-1.383c-.14-.451-.218-.857-.173-.902.045-.045-.001-.183-.103-.306s-.144-.223-.094-.223c.051 0-.052-.503-.227-1.117-.176-.614-.354-1.383-.396-1.708-.042-.326-.197-.987-.343-1.471-.147-.483-.221-.952-.166-1.041.055-.09.015-.163-.09-.163-.104 0-.158-.094-.119-.209.04-.114-.067-.696-.237-1.291-.171-.596-.347-1.373-.392-1.728a12.548 12.548 0 0 0-.336-1.515c-.14-.48-.29-1.159-.335-1.509a16.888 16.888 0 0 0-.34-1.632 16.474 16.474 0 0 1-.333-1.583 16.422 16.422 0 0 0-.333-1.584c-.142-.548-.289-1.233-.326-1.523a23.534 23.534 0 0 0-.337-1.685c-.148-.637-.295-1.421-.327-1.741-.032-.321-.177-1.087-.322-1.702-.144-.615-.253-1.178-.241-1.25a.432.432 0 0 0-.019-.215c-.023-.046-.057-.271-.077-.5-.019-.229-.163-1.149-.32-2.044-.156-.896-.237-1.705-.179-1.799.058-.095.016-.28-.094-.412-.109-.132-.16-.344-.112-.469.049-.126-.059-1.271-.238-2.544-.179-1.273-.285-2.479-.235-2.68.05-.201.028-.404-.049-.452-.078-.047-.148-.521-.157-1.052-.008-.53-.095-1.827-.192-2.881-.445-4.834-.046-7.75.899-6.58.69.855 5.612 11.34 5.84 12.442.032.154.182.469.334.7.151.231.293.518.316.637.022.12.2.555.396.967.86 1.819 1.703 3.681 1.703 3.763 0 .125 2.077 4.283 3.219 6.446a998.082 998.082 0 0 1 3.95 7.541c.665 1.284 1.283 2.427 1.374 2.542.09.115.106.208.035.208-.072 0-.013.132.13.292.143.16.52.817.838 1.458.317.642.782 1.542 1.033 2 .746 1.364 1.139 2.163 1.098 2.232-.022.035.03.11.114.166.084.056.418.59.741 1.186l1.717 3.166c.621 1.146 1.269 2.283 1.44 2.526.171.243.311.494.311.558 0 .063.168.351.374.641.206.289.366.563.357.609-.018.083.163.4.856 1.5.202.32.651 1.07.996 1.666.345.596.796 1.346 1 1.667.205.321.664 1.059 1.02 1.64.355.581.822 1.275 1.036 1.542.215.266.341.485.28.485-.06 0-.011.105.11.234.517.549 3.05 4.155 3.012 4.287-.023.08.015.132.084.115.068-.017 1.409 1.246 2.979 2.806 3.228 3.209 7.257 6.564 11.141 9.276 1.199.837 4.496 3.027 4.838 3.213 2.827 1.541 4.607 2.346 5.553 2.513.699.123 3.428.181 3.614.076.091-.052.302-.115.467-.141.165-.026.521-.161.792-.301.27-.139.492-.195.493-.124.002.071.058.053.125-.039.068-.093.451-.382.853-.642 1.608-1.043 3.391-3.039 4.637-5.19.664-1.145 2.026-3.794 2.079-4.041.015-.069.285-.688.6-1.376.315-.687.673-1.55.795-1.916.122-.367.453-1.342.735-2.167.282-.825.553-1.725.602-2 .049-.275.203-.893.341-1.372.139-.48.258-1.118.264-1.417.006-.299.047-.607.091-.684.389-.679.363-8.456-.031-9.094-.062-.101-.077-.241-.034-.312.044-.07-.066-.839-.245-1.708s-.355-1.88-.392-2.246a23.255 23.255 0 0 0-.329-1.89c-.144-.673-.222-1.286-.175-1.363.048-.078.006-.191-.094-.253-.099-.061-.142-.212-.095-.335.047-.123-.059-.729-.235-1.347-.177-.618-.286-1.159-.243-1.203.044-.043-.004-.179-.107-.302-.102-.123-.143-.224-.091-.224.051 0-.085-.525-.303-1.167-.219-.641-.367-1.166-.331-1.166.036 0-.125-.507-.358-1.125-.233-.619-.401-1.125-.373-1.125.028 0-.106-.45-.296-1-.775-2.24-.886-2.626-.798-2.768.051-.082 0-.149-.112-.149-.113 0-.159-.046-.103-.102.056-.056-.041-.487-.215-.958-.175-.471-.357-1.088-.405-1.37a8.967 8.967 0 0 0-.327-1.193 9.084 9.084 0 0 1-.34-1.307 15.392 15.392 0 0 0-.357-1.513c-.142-.487-.211-.962-.153-1.055.057-.093.033-.169-.055-.169-.087 0-.154-.168-.149-.375.005-.206-.12-1.031-.278-1.833-.158-.802-.244-1.528-.191-1.613a.182.182 0 0 0-.057-.25c-.084-.052-.149-.339-.145-.637.004-.298-.114-1.479-.263-2.625-.324-2.494-.296-1.433-.308-11.417-.011-8.904.069-11.713.424-14.974.129-1.177.196-2.284.15-2.459-.046-.175-.002-.416.096-.535.099-.118.143-.362.097-.54-.045-.179.064-1.443.242-2.809.179-1.366.286-2.586.238-2.71-.048-.125-.003-.329.101-.454.103-.124.148-.332.098-.461-.05-.129.056-1.234.236-2.454.179-1.221.285-2.325.235-2.455-.05-.13-.008-.336.093-.458s.14-.265.086-.319c-.054-.054.033-.91.193-1.902.159-.991.287-2.047.282-2.345-.004-.298.057-.582.135-.63.079-.049.105-.189.058-.312-.047-.122.04-.888.193-1.703.154-.814.3-1.705.325-1.98.025-.275.062-.537.083-.583a.468.468 0 0 0 .01-.232c-.241-1.299.856-1.343 3.257-.13 4.115 2.078 4.47 1.536 3.811-5.814a186.351 186.351 0 0 1-.325-3.991c-.028-.504-.104-1.048-.17-1.208-.066-.16-.081-.393-.033-.517.047-.124-.061-1.074-.24-2.11-.18-1.037-.289-1.983-.243-2.103.046-.12.006-.266-.09-.325s-.134-.262-.084-.45c.362-1.387-.847-3.816-2.011-4.037a3.54 3.54 0 0 1-.383-.09.494.494 0 0 0-.211-.012c-.071.012-.707-.254-1.415-.59-1.368-.649-4.497-1.076-4.998-.681-.115.089-.361.123-.548.074-.187-.049-1.027.052-1.868.224-.84.172-1.562.279-1.604.237-.042-.041-.176.008-.299.11-.123.102-.224.14-.224.084 0-.057-.489.081-1.086.306-.597.225-1.122.411-1.167.413-1.24.07-4.247 2.814-4.247 3.875 0 .165-.079.3-.177.3-.097 0-.133.07-.08.155.052.085-.045.516-.217.958-.172.442-.279.898-.239 1.012.041.115-.012.209-.116.209-.105 0-.146.072-.091.161.055.088-.015.557-.155 1.041a12.64 12.64 0 0 0-.341 1.584c-.048.387-.232 1.311-.409 2.053-.177.743-.284 1.45-.237 1.572.046.122.008.269-.086.327-.094.058-.135.199-.091.313.044.114-.064.905-.239 1.758-.174.852-.282 1.685-.239 1.851.044.166.001.35-.095.41a.268.268 0 0 0-.098.31c.041.112-.066 1.025-.238 2.031-.173 1.005-.277 1.924-.231 2.043.046.119-.002.319-.105.443-.104.125-.149.331-.1.457.048.127-.053 1.158-.226 2.292-.173 1.134-.278 2.203-.233 2.375a.703.703 0 0 1-.118.556c-.111.133-.154.317-.097.41.057.093-.019 1.052-.169 2.132-.151 1.08-.275 2.321-.276 2.758-.001.436-.072.836-.156.889-.085.052-.111.232-.058.399.053.166-.025 1.295-.173 2.508-.237 1.934-.38 3.467-.427 4.577-.007.183-.115 1.533-.239 3-.675 7.989-.71 20.953-.075 27.52.105 1.089.224 2.43.265 2.98l.144 1.916c.039.505.188 1.691.332 2.638.143.946.216 1.793.161 1.882-.055.089-.028.252.059.363.087.11.158.426.158.701-.001.275.125 1.278.279 2.229.154.951.24 1.769.191 1.818-.049.049-.006.188.095.31.102.122.146.322.099.444-.047.122.057 1.002.231 1.954.175.952.277 1.86.227 2.016-.05.156-.007.335.095.398a.275.275 0 0 1 .106.318c-.043.111.066.985.241 1.941.175.956.283 1.83.24 1.941-.043.112-.013.243.065.292.079.048.144.332.145.63.001.298.125 1.198.276 2 .152.802.232 1.528.179 1.614-.053.085-.014.205.085.267.099.061.144.207.099.323-.044.117.064.953.24 1.858.177.906.312 1.759.301 1.897-.011.137-.004.287.017.333.021.046.058.308.083.583.026.275.17 1.288.322 2.25.151.963.272 2.088.269 2.5-.003.413.027 1.331.066 2.04.038.709.004 1.33-.077 1.38-.081.05-.109.191-.062.314.723 1.883-5.482-2.467-10.198-7.15-2.807-2.787-4.854-5.255-9.196-11.084-2.952-3.962-4.319-5.828-5.142-7.019-.356-.514-1.16-1.662-1.787-2.551-.627-.889-2.321-3.393-3.764-5.564-2.584-3.888-3.147-4.752-5.108-7.838-.543-.855-1.19-1.866-1.437-2.246-.534-.823-.491-.94.173-.467.272.194.566.352.654.352.088 0 .358.155.599.345.242.19.439.309.439.263 0-.045.507.195 1.125.534 1.34.734 5.459 2.766 5.459 2.693 0-.028.337.125.75.341.412.216.79.396.838.4.049.004.387.131.75.282 2.281.948 2.723 1.108 2.812 1.019.055-.054.1-.007.1.105s.067.163.149.112c.082-.05.417.02.745.158.329.137.843.281 1.143.32.3.039.883.15 1.296.246 3.492.811 6.486-1.194 8.731-5.848.896-1.856 1.174-2.571 2.036-5.22.239-.733.565-1.708.725-2.167.652-1.869 1.086-3.345 1.041-3.541-.026-.115.035-.209.136-.209s.144-.064.096-.142c-.049-.079.052-.636.225-1.238.172-.602.271-1.136.221-1.187-.051-.05-.007-.194.097-.319.104-.125.152-.265.106-.311-.046-.046.065-.807.247-1.691s.288-1.717.237-1.851a.561.561 0 0 1 .026-.439c.384-.622.38-10.41-.005-11.355-.063-.156-.075-.348-.027-.427.049-.079-.056-.804-.232-1.612-.177-.808-.284-1.529-.238-1.603.046-.074.012-.179-.075-.233-.088-.054-.151-.228-.141-.387.009-.158-.104-.701-.252-1.205a16.542 16.542 0 0 1-.359-1.43 9.685 9.685 0 0 0-.353-1.25c-.144-.405-.29-.924-.324-1.153-.034-.229-.213-.848-.397-1.375-.185-.527-.306-.958-.268-.958.038 0-.078-.343-.258-.761-.179-.419-.356-.925-.394-1.125-.037-.2-.224-.758-.415-1.239-.192-.482-.309-.875-.261-.875.048 0 .002-.159-.102-.353-.217-.405-1.15-2.924-1.24-3.345a3.096 3.096 0 0 0-.256-.648 5.485 5.485 0 0 1-.332-.803c-.074-.239-.408-1.072-.742-1.851-.334-.78-.637-1.556-.674-1.726a1.415 1.415 0 0 0-.237-.514c-.094-.113-.275-.499-.403-.858s-.512-1.252-.853-1.986c-.342-.733-.881-1.895-1.199-2.583-.881-1.909-3.261-6.538-3.555-6.917a10.163 10.163 0 0 1-.481-.791l-.703-1.25a183.227 183.227 0 0 0-2.088-3.425c-.955-1.54-1.685-2.883-1.622-2.984.062-.102.045-.142-.038-.091-.083.051-1.087-1.306-2.23-3.016-6.99-10.452-12.246-15.573-18.087-17.625-.641-.226-1.391-.45-1.666-.498a46.634 46.634 0 0 1-1.641-.345 15.863 15.863 0 0 0-2.25-.314 51.5 51.5 0 0 1-2.026-.148c-.504-.051-1.067-.028-1.25.051Zm2.667 30.125c.458.065.888.106.956.091.274-.063 2.363.83 3.418 1.461 1.675 1 2.909 2.229 4.233 4.218 1.777 2.667 2.919 4.407 3.059 4.66.147.265 1.041 1.694 2.168 3.465.309.486.966 1.572 1.832 3.029 2.818 4.739 5.425 9.581 6.49 12.054l1.043 2.417c.138.32.276.695.305.833.028.137.172.531.318.875.146.344.208.626.138.628-.07.001-.049.057.047.125.165.116 1.346 3.445 1.493 4.207.038.197.225.775.415 1.283.191.509.312.96.271 1.001-.041.042.067.491.242.998.174.507.276.988.226 1.069-.05.081-.016.147.075.147.092 0 .16.132.153.292-.008.16.118.779.28 1.375.294 1.086.503 2.929.491 4.333-.017 1.952-.14 3.691-.268 3.77-.077.047-.095.16-.04.25.175.283-.282 1.813-.591 1.978-.463.248-5.583-2.385-9.004-4.631-1.958-1.285-4.74-3.781-4.553-4.084.057-.092.031-.122-.058-.067-.394.243-7.023-7.567-17.343-20.434-2.089-2.604-2.24-2.84-2.137-3.334a6.35 6.35 0 0 0 .119-.948c.005-.229.119-1.691.254-3.25.318-3.684.394-4.722.391-5.346-.001-.282.141-1.624.315-2.981.174-1.358.277-2.572.229-2.698-.048-.126-.003-.331.1-.456a.539.539 0 0 0 .09-.484c-.055-.142.025-.92.177-1.729.153-.81.302-1.735.333-2.056.13-1.355.603-1.906 1.834-2.13.835-.153.959-.15 2.499.069Zm-44.854 19.478c.147.825.266 1.725.263 2-.006.692.115 2.509.342 5.122.187 2.16.289 4.65.41 10.045.033 1.466.147 5.066.254 8 .348 9.599.6 58.374.303 58.671-.064.063-.476-.189-.917-.559-.939-.79-1.339-.96-2.847-1.209-1.752-.289-10.469-.229-12.185.084-.768.14-1.457.218-1.53.173-.073-.045-.183-.001-.245.098-.061.1-.208.144-.327.098-.118-.045-.767.062-1.441.238-.675.176-1.516.358-1.87.405a12.57 12.57 0 0 0-1.5.334c-.471.136-1.081.276-1.356.31-.275.035-.95.197-1.5.361-.55.163-1.162.316-1.359.338a4.45 4.45 0 0 0-.685.145c-.574.182-1.098-.395-.879-.97.1-.264.222-.735.272-1.047.049-.312.194-.816.321-1.121.127-.304.269-.758.314-1.008.045-.251.214-.843.375-1.315.161-.473.279-.911.262-.974-.017-.063.154-.607.381-1.208.226-.602.379-1.094.339-1.094-.041 0 .078-.432.263-.959.185-.527.363-1.085.396-1.241.117-.547.628-2.229 1.01-3.324.212-.609.341-1.153.285-1.209-.055-.055-.009-.101.103-.101.113 0 .162-.069.109-.154-.052-.085.055-.535.238-1 .183-.465.301-.846.261-.846-.039 0 .08-.431.265-.958.185-.527.368-1.116.406-1.309.039-.193.189-.681.334-1.084.145-.402.291-.859.323-1.015.111-.528.62-2.213.973-3.217.193-.55.353-1.075.355-1.167.005-.193.492-1.774.942-3.056.172-.49.312-1.033.312-1.208 0-.176.059-.319.131-.319.072 0 .141-.131.153-.292.012-.16.184-.816.381-1.458.469-1.528.945-3.077 1.359-4.417.183-.596.421-1.383.527-1.75.107-.366.232-.704.28-.75a.422.422 0 0 0 .092-.25c.01-.237.386-1.497.797-2.666.194-.55.334-1 .311-1-.023 0 .116-.45.309-1s.381-1.144.418-1.319c.037-.176.181-.663.321-1.084.14-.42.262-.839.271-.931.01-.091.192-.628.404-1.193.213-.565.343-1.071.289-1.125-.054-.054-.019-.098.078-.098.096 0 .166-.094.154-.209-.012-.114.224-.976.523-1.915.3-.939.553-1.764.563-1.833.011-.07.164-.539.342-1.043.177-.505.357-1.104.4-1.334.043-.229.224-.81.402-1.291.178-.482.292-.875.253-.875-.039 0 .107-.525.326-1.167.218-.642.367-1.167.332-1.167-.035 0 .085-.431.266-.958.182-.527.373-1.221.424-1.542.051-.321.202-.844.335-1.164.133-.319.265-.769.293-1 .05-.411.33-1.411.963-3.444.176-.563.356-1.238.4-1.5.045-.261.207-.85.36-1.308.154-.459.265-.884.249-.945-.017-.062.124-.549.312-1.084.189-.534.368-1.084.4-1.221.031-.138.071-.288.089-.334a.494.494 0 0 0 .012-.211c-.011-.07.093-.399.231-.73.139-.332.287-.795.329-1.029.091-.503.497-1.777.939-2.95.174-.46.316-.926.316-1.037 0-.11.143-.521.318-.913.176-.392.525-1.201.776-1.796 1.05-2.487 1.417-2.572 1.802-.417ZM70.75 212.077c2.584.191 3.258.264 4.492.484.729.13 1.424.198 1.544.152.12-.046.318-.001.44.1s.264.141.317.088c.053-.052.721.037 1.485.199.764.162 1.557.288 1.764.281.206-.007.375.059.375.146 0 .088.076.112.169.055.092-.057.599.021 1.125.174.525.153 1.106.307 1.289.343 1.062.205 2.009.704 2.59 1.364.641.729 1.579 2.764 1.404 3.047-.054.086-.011.157.093.157.105 0 .161.09.124.201-.037.111.03.617.15 1.125.447 1.899.188 3.844-.502 3.768-.647-.071-5.466-2.809-6.37-3.619-.189-.17-.391-.309-.45-.309-.058 0-.453-.243-.879-.541a28.592 28.592 0 0 0-1.05-.709c-.406-.243-3.907-2.639-5.36-3.668a166.525 166.525 0 0 0-2.698-1.858c-1.3-.874-1.831-1.352-1.26-1.133.114.043.658.113 1.208.153Z" clip-rule="evenodd"/></svg>